<?xml version="1.0" encoding="UTF-8"?>
<svg width="37px" height="44px" viewBox="0 0 37 44" version="1.1" xmlns="http://www.w3.org/2000/svg" xmlns:xlink="http://www.w3.org/1999/xlink">
    <!-- Generator: Sketch 58 (84663) - https://sketch.com -->
    <title>Spade</title>
    <desc>Created with Sketch.</desc>
    <g id="Spade" stroke="none" stroke-width="1" fill="none" fill-rule="evenodd">
        <g transform="translate(0.574698, 0.418000)">
            <path d="M17.6923016,42.52 C17.5903016,42.452 17.5183016,42.416 17.3993016,42.339 C9.80430162,37.489 0.943301616,28.028 0.0353016164,16.235 C-0.396698384,10.625 3.19030162,6.74 7.82830162,6.655 C10.7893016,6.602 13.1703016,7.653 14.4603016,9.663 C15.5323016,11.334 15.8063016,13.911 15.9803016,12.721 C16.6053016,8.179 14.7033016,3.814 13.6743016,0 C14.8213016,0.417 16.2633016,0.627 17.7073016,0.632 L17.7313016,0.632 C19.1743016,0.627 20.6123016,0.417 21.7593016,0 C20.7303016,3.814 18.8323016,8.179 19.4563016,12.721 C19.6293016,13.911 19.9023016,11.334 20.9733016,9.663 C22.2623016,7.653 24.6433016,6.602 27.6043016,6.655 C32.2423016,6.74 35.8293016,10.625 35.3983016,16.235 C34.4883016,28.028 25.6283016,37.489 18.0393016,42.339 C17.9563016,42.401 17.8843016,42.439 17.7653016,42.52 L17.6923016,42.52 Z" id="Fill-159" fill="#1A1919" fill-rule="evenodd"></path>
            <path d="M17.6923016,42.52 C17.5903016,42.452 17.5183016,42.416 17.3993016,42.339 C9.80430162,37.489 0.943301616,28.028 0.0353016164,16.235 C-0.396698384,10.625 3.19030162,6.74 7.82830162,6.655 C10.7893016,6.602 13.1703016,7.653 14.4603016,9.663 C15.5323016,11.334 15.8063016,13.911 15.9803016,12.721 C16.6053016,8.179 14.7033016,3.814 13.6743016,0 C14.8213016,0.417 16.2633016,0.627 17.7073016,0.632 L17.7313016,0.632 C19.1743016,0.627 20.6123016,0.417 21.7593016,0 C20.7303016,3.814 18.8323016,8.179 19.4563016,12.721 C19.6293016,13.911 19.9023016,11.334 20.9733016,9.663 C22.2623016,7.653 24.6433016,6.602 27.6043016,6.655 C32.2423016,6.74 35.8293016,10.625 35.3983016,16.235 C34.4883016,28.028 25.6283016,37.489 18.0393016,42.339 C17.9563016,42.401 17.8843016,42.439 17.7653016,42.52 L17.6923016,42.52 Z" id="Stroke-160" stroke="#1A1919" stroke-width="0.163" stroke-linejoin="round"></path>
        </g>
    </g>
</svg>